<svg width="80" height="80" viewBox="0 0 80 80" fill="none" xmlns="http://www.w3.org/2000/svg">
  <rect width="80" height="80" rx="8" fill="#F1F5F9"/>
  <path d="M40 20C28.954 20 20 28.954 20 40C20 51.046 28.954 60 40 60C51.046 60 60 51.046 60 40C60 28.954 51.046 20 40 20ZM40 56C31.163 56 24 48.837 24 40C24 31.163 31.163 24 40 24C48.837 24 56 31.163 56 40C56 48.837 48.837 56 40 56Z" fill="#CBD5E1"/>
  <path d="M42 36H38V44H42V36Z" fill="#94A3B8"/>
  <path d="M42 30H38V34H42V30Z" fill="#94A3B8"/>
</svg>

