<svg xmlns="http://www.w3.org/2000/svg" width="32" height="32" viewBox="0 0 32 32">
  <g fill="none" fill-rule="evenodd">
    <circle cx="16" cy="16" r="16" fill="#26A17B"/>
    <path fill="#FFF" d="M17.922 17.383v-.002c-.11.008-.677.042-1.942.042-1.01 0-1.721-.03-1.971-.042v.003c-3.888-.171-6.79-.848-6.79-1.658 0-.809 2.902-1.486 6.79-1.66v2.644c.254.018.982.045 1.988.045 1.207 0 1.812-.03 1.925-.045v-2.643c3.88.173 6.775.85 6.775 1.658 0 .81-2.895 1.485-6.775 1.658m0-.431v-2.119c3.79.173 6.65.825 6.65 1.56 0 .735-2.86 1.387-6.65 1.559m-3.936-2.119v2.119c-3.784-.172-6.639-.824-6.639-1.559 0-.735 2.855-1.387 6.639-1.559m3.936-1.122V9.45H24.97v3.9h-5.58v1.18h.017c.08-.002 2.082-.052 3.704-.466 1.607-.41 2.297-.917 2.347-.958l.01-.008v5.625l-.01-.006c-.12.097-.81.618-2.353 1.042-1.496.41-3.396.461-3.693.463l-.022.001v6.639H17.92v-6.64l-.021-.001c-.297-.002-2.197-.053-3.694-.463-1.543-.424-2.233-.945-2.353-1.042l-.01-.006v-5.625l.01.008c.05.041.74.548 2.347.958 1.622.414 3.624.464 3.704.466h.017v-1.18H6.844v-3.9h11.078z"/>
  </g>
</svg>

