<svg width="40" height="40" viewBox="0 0 40 40" fill="none" xmlns="http://www.w3.org/2000/svg">
  <circle cx="20" cy="20" r="20" fill="#2E5CFF"/>
  <path d="M20 9C21.2 9.2 22.6 9.4 24 9.6C26.6 9.9 29.1 10.3 31.2 10.8C31.5 10.9 31.7 11.1 31.7 11.5C31.8 13.3 32 15.1 32 16.9C32 22.5 31.1 26.7 28.6 29.9C27.1 31.8 25.2 32.9 22.9 33.7C22 34 21.1 34.2 20.1 34.5C20 34.5 19.9 34.5 19.9 34.5C19.8 34.5 19.7 34.5 19.6 34.5C18.6 34.2 17.6 34 16.8 33.7C14.5 32.9 12.6 31.8 11.1 29.9C8.6 26.7 7.7 22.5 7.7 16.9C7.7 15.1 7.9 13.3 8 11.5C8.1 11.1 8.2 10.9 8.6 10.8C10.6 10.3 13.2 9.9 15.8 9.6C17.2 9.4 18.6 9.2 19.8 9H20ZM20 11.9C19.9 11.9 19.8 11.9 19.7 11.9C18.6 12.1 17.3 12.3 16.1 12.5C14.1 12.8 12 13.1 10.6 13.4C10.5 13.4 10.5 13.4 10.4 13.4C10.4 14.6 10.3 15.8 10.3 17C10.3 22 11.1 25.4 13 27.9C14.1 29.2 15.5 30.1 17.3 30.8C17.9 31 18.5 31.2 19.3 31.4C19.4 31.4 19.5 31.5 19.6 31.5C19.7 31.5 19.8 31.5 19.9 31.4C20.6 31.2 21.3 31 21.9 30.8C23.7 30.1 25.1 29.2 26.2 27.9C28.1 25.4 28.9 22 28.9 17C28.9 15.8 28.8 14.6 28.8 13.4C28.8 13.4 28.7 13.4 28.7 13.4C27.2 13.1 25.2 12.8 23.1 12.5C21.9 12.3 20.7 12.1 19.6 11.9C19.8 11.9 19.8 11.9 20 11.9Z" fill="white"/>
  <path d="M18 22.1L23.5 16.6L24.4 17.5L18 23.9L14.7 20.6L15.6 19.7L18 22.1Z" fill="white"/>
</svg>

