<svg width="40" height="40" viewBox="0 0 40 40" fill="none" xmlns="http://www.w3.org/2000/svg">
  <circle cx="20" cy="20" r="20" fill="#3B99FC"/>
  <path d="M8.19 14.2C15.04 7.4 26.22 7.4 33.07 14.2L33.78 14.9C34.07 15.19 34.07 15.66 33.78 15.95L31.07 18.64C30.93 18.79 30.69 18.79 30.54 18.64L29.57 17.68C24.76 12.92 16.5 12.92 11.69 17.68L10.65 18.71C10.5 18.86 10.26 18.86 10.11 18.71L7.4 16.02C7.11 15.73 7.11 15.26 7.4 14.97L8.19 14.2ZM37.3 19.09L39.73 21.5C40.02 21.79 40.02 22.26 39.73 22.55L29.57 32.61C29.28 32.9 28.8 32.9 28.52 32.61L21.48 25.64C21.41 25.57 21.29 25.57 21.22 25.64L14.18 32.61C13.89 32.9 13.41 32.9 13.13 32.61L2.97 22.55C2.68 22.26 2.68 21.79 2.97 21.5L5.4 19.09C5.69 18.8 6.17 18.8 6.45 19.09L13.5 26.06C13.57 26.13 13.69 26.13 13.76 26.06L20.8 19.09C21.09 18.8 21.57 18.8 21.85 19.09L28.9 26.06C28.97 26.13 29.09 26.13 29.16 26.06L36.2 19.09C36.53 18.8 37.01 18.8 37.3 19.09Z" fill="white"/>
</svg>

