<svg width="180" height="40" viewBox="0 0 180 40" fill="none" xmlns="http://www.w3.org/2000/svg">
  <path d="M30.3 19.3L20.1 9.1C19.5 8.5 18.5 8.5 17.9 9.1L7.7 19.3C7.1 19.9 7.1 20.9 7.7 21.5L17.9 31.7C18.5 32.3 19.5 32.3 20.1 31.7L30.3 21.5C30.9 20.9 30.9 19.9 30.3 19.3Z" fill="#3D89F5"/>
  <path d="M19 0C8.5 0 0 8.5 0 19C0 29.5 8.5 38 19 38C29.5 38 38 29.5 38 19C38 8.5 29.5 0 19 0ZM19 34C10.7 34 4 27.3 4 19C4 10.7 10.7 4 19 4C27.3 4 34 10.7 34 19C34 27.3 27.3 34 19 34Z" fill="#3D89F5"/>
  <path d="M52.5 11.1H48.2V27.7H52.5V11.1Z" fill="#121D33"/>
  <path d="M65.8 11.1H61.5V27.7H65.8V11.1Z" fill="#121D33"/>
  <path d="M79.1 11.1H74.8V27.7H79.1V11.1Z" fill="#121D33"/>
  <path d="M92.4 11.1H88.1V27.7H92.4V11.1Z" fill="#121D33"/>
  <path d="M105.7 11.1H101.4V27.7H105.7V11.1Z" fill="#121D33"/>
  <path d="M119 11.1H114.7V27.7H119V11.1Z" fill="#121D33"/>
  <path d="M132.3 11.1H128V27.7H132.3V11.1Z" fill="#121D33"/>
  <path d="M145.6 11.1H141.3V27.7H145.6V11.1Z" fill="#121D33"/>
  <path d="M158.9 11.1H154.6V27.7H158.9V11.1Z" fill="#121D33"/>
  <path d="M172.2 11.1H167.9V27.7H172.2V11.1Z" fill="#121D33"/>
</svg>

