<svg width="180" height="40" viewBox="0 0 180 40" fill="none" xmlns="http://www.w3.org/2000/svg">
  <path d="M38.9 20C38.9 30.5 30.4 39 19.9 39C9.4 39 0.9 30.5 0.9 20C0.9 9.5 9.4 1 19.9 1C30.4 1 38.9 9.5 38.9 20Z" fill="#0052FF"/>
  <path d="M19.9 8.4C13.6 8.4 8.3 13.7 8.3 20C8.3 26.3 13.6 31.6 19.9 31.6C26.2 31.6 31.5 26.3 31.5 20C31.5 13.7 26.2 8.4 19.9 8.4ZM16.7 24.9V15.1C16.7 14.9 16.9 14.7 17.1 14.7H22.7C22.9 14.7 23.1 14.9 23.1 15.1V16.9C23.1 17.1 22.9 17.3 22.7 17.3H19.7V19.1H22.3C22.5 19.1 22.7 19.3 22.7 19.5V21.3C22.7 21.5 22.5 21.7 22.3 21.7H19.7V23.5H22.7C22.9 23.5 23.1 23.7 23.1 23.9V25.7C23.1 25.9 22.9 26.1 22.7 26.1H17.1C16.9 26.1 16.7 25.9 16.7 25.7V24.9Z" fill="white"/>
  <path d="M53.9 15.1H51.1V24.9H53.9C57.5 24.9 59.9 22.5 59.9 20C59.9 17.5 57.5 15.1 53.9 15.1ZM53.9 22.3H54.1V17.7H53.9C58.9 17.7 58.9 22.3 53.9 22.3Z" fill="#0052FF"/>
  <path d="M67.9 15.1H65.1V24.9H67.9C71.5 24.9 73.9 22.5 73.9 20C73.9 17.5 71.5 15.1 67.9 15.1ZM67.9 22.3H68.1V17.7H67.9C72.9 17.7 72.9 22.3 67.9 22.3Z" fill="#0052FF"/>
  <path d="M81.9 15.1H79.1V24.9H81.9V15.1Z" fill="#0052FF"/>
  <path d="M95.9 15.1H93.1V24.9H95.9V15.1Z" fill="#0052FF"/>
  <path d="M109.9 15.1H107.1V24.9H109.9V15.1Z" fill="#0052FF"/>
  <path d="M123.9 15.1H121.1V24.9H123.9V15.1Z" fill="#0052FF"/>
  <path d="M137.9 15.1H135.1V24.9H137.9V15.1Z" fill="#0052FF"/>
  <path d="M151.9 15.1H149.1V24.9H151.9V15.1Z" fill="#0052FF"/>
  <path d="M165.9 15.1H163.1V24.9H165.9V15.1Z" fill="#0052FF"/>
  <path d="M179.9 15.1H177.1V24.9H179.9V15.1Z" fill="#0052FF"/>
</svg>

