<svg width="180" height="40" viewBox="0 0 180 40" fill="none" xmlns="http://www.w3.org/2000/svg">
  <path d="M19.9 1C9.4 1 0.9 9.5 0.9 20C0.9 30.5 9.4 39 19.9 39C30.4 39 38.9 30.5 38.9 20C38.9 9.5 30.4 1 19.9 1ZM28.9 28H10.9V10H28.9V28Z" fill="black"/>
  <path d="M24.9 14H14.9V24H24.9V14Z" fill="black"/>
  <path d="M53.9 15.1H51.1V24.9H53.9C57.5 24.9 59.9 22.5 59.9 20C59.9 17.5 57.5 15.1 53.9 15.1ZM53.9 22.3H54.1V17.7H53.9C58.9 17.7 58.9 22.3 53.9 22.3Z" fill="black"/>
  <path d="M67.9 15.1H65.1V24.9H67.9C71.5 24.9 73.9 22.5 73.9 20C73.9 17.5 71.5 15.1 67.9 15.1ZM67.9 22.3H68.1V17.7H67.9C72.9 17.7 72.9 22.3 67.9 22.3Z" fill="black"/>
  <path d="M81.9 15.1H79.1V24.9H81.9V15.1Z" fill="black"/>
  <path d="M95.9 15.1H93.1V24.9H95.9V15.1Z" fill="black"/>
  <path d="M109.9 15.1H107.1V24.9H109.9V15.1Z" fill="black"/>
  <path d="M123.9 15.1H121.1V24.9H123.9V15.1Z" fill="black"/>
  <path d="M137.9 15.1H135.1V24.9H137.9V15.1Z" fill="black"/>
  <path d="M151.9 15.1H149.1V24.9H151.9V15.1Z" fill="black"/>
  <path d="M165.9 15.1H163.1V24.9H165.9V15.1Z" fill="black"/>
  <path d="M179.9 15.1H177.1V24.9H179.9V15.1Z" fill="black"/>
</svg>

